<?xml version="1.0" encoding="iso-8859-1"?>
<!-- Generator: Adobe Illustrator 19.0.0, SVG Export Plug-In . SVG Version: 6.00 Build 0)  -->
<svg version="1.1" id="Capa_1" xmlns="http://www.w3.org/2000/svg" xmlns:xlink="http://www.w3.org/1999/xlink" x="0px" y="0px"
	 viewBox="0 0 512 512" style="enable-background:new 0 0 512 512;" xml:space="preserve">
<path style="fill:#FFB69E;" d="M229.293,174.904L229.293,174.904l-0.139-27.704c-0.13-26.015-21.401-47.18-47.416-47.18h-31.357
	c0,0.012,0.001,0.024,0.002,0.037h-45.891c0-0.012,0-0.024,0-0.037H89.596L52.72,86.041l37.872-47.929
	c6.861-8.682,5.384-21.283-3.298-28.144c-8.683-6.86-21.282-5.385-28.144,3.299L4.317,82.66c-3.96,5.011-5.294,11.609-3.591,17.765
	c1.702,6.155,6.237,11.131,12.21,13.394l28.007,10.616l0,0l29.874,11.323l4.49,1.702v154.581h106.134v-59.755l25.89,2.765
	c0.711,0.076,1.421,0.113,2.129,0.113c4.937,0,9.73-1.826,13.431-5.169c4.231-3.823,6.633-9.267,6.604-14.969L229.293,174.904z
	 M181.738,140.093c4.029,0,7.322,3.278,7.343,7.307l0.138,27.503l0,0l0.09,17.92l-7.868-0.84v-51.89L181.738,140.093
	L181.738,140.093z"/>
<path style="fill:#414B82;" d="M133.351,283.523v200.709c0,13.28,10.766,24.045,24.045,24.045s24.045-10.765,24.045-24.045V283.523
	H133.351z"/>
<circle style="fill:#FFB69E;" cx="128.151" cy="45.252" r="41.528"/>
<path style="fill:#5F6E9B;" d="M75.307,283.523v200.709c0,13.28,10.765,24.045,24.045,24.045s24.045-10.765,24.045-24.045V283.523
	H75.307z"/>
<g>
	<path style="fill:#78BEFF;" d="M229.154,147.199c-0.13-26.015-21.401-47.18-47.416-47.18h-31.357
		c0.001,0.02,0.003,0.039,0.004,0.059c0.555,12.392-10.943,22.946-22.946,22.946c-12.864,0-22.389-10.514-22.946-22.946
		c-0.001-0.02,0-0.039-0.001-0.059H89.596L55.646,87.15l-14.702,37.284l34.363,13.025V292.04h106.134v-59.755l25.89,2.765
		c0.711,0.076,1.421,0.113,2.129,0.113c4.937,0,9.73-1.826,13.431-5.169c4.231-3.823,6.633-9.267,6.604-14.969L229.154,147.199z
		 M181.441,191.984v-51.89h0.297c4.029,0,7.322,3.278,7.343,7.307l0.228,45.424L181.441,191.984z"/>
	<path style="fill:#78BEFF;" d="M89.693,100.056l-0.007-0.003C89.705,100.054,89.713,100.055,89.693,100.056z"/>
</g>
<g>
	<path style="fill:#414B82;" d="M369.893,277.276v206.189c0,13.704,11.109,24.812,24.812,24.812s24.812-11.108,24.812-24.812
		V277.276H369.893z"/>
	<path style="fill:#414B82;" d="M309.997,277.276v206.189c0,13.704,11.109,24.812,24.812,24.812s24.812-11.108,24.812-24.812
		V277.276H309.997z"/>
</g>
<path style="fill:#252D5C;" d="M499.789,109.222c6.122-2.257,10.622-7.547,11.868-13.952c1.246-6.405-0.942-12.995-5.771-17.383
	l-74.014-67.25c-7.629-6.933-19.439-6.37-26.373,1.263c-6.934,7.632-6.369,19.439,1.263,26.374l51.241,46.559l-60.743,22.835
	h-65.003l-60.743-23.274l51.241-46.559c7.632-6.934,8.197-18.742,1.263-26.374c-6.934-7.633-18.744-8.196-26.373-1.263
	l-74.014,67.25c-4.829,4.388-7.017,10.978-5.771,17.383c1.246,6.405,5.746,11.695,11.868,13.952L310,138.381V285.14h109.521V138.82
	L499.789,109.222z"/>
<path style="fill:#1B224A;" d="M499.789,109.222c6.122-2.257,10.622-7.547,11.868-13.952c1.246-6.405-0.942-12.995-5.771-17.383
	l-74.014-67.25c-7.629-6.933-19.439-6.37-26.373,1.263c-6.934,7.632-6.369,19.439,1.263,26.374l51.241,46.559l-60.743,22.835
	h-32.506v177.474h54.764v-146.32L499.789,109.222z"/>
<polygon style="fill:#FFFFFF;" points="332.255,107.666 364.753,192.951 397.259,107.666 "/>
<path style="fill:#CD2D23;" d="M378.888,136.699l-7.22-13.131l6.222-11.316c1.131-2.058-0.359-4.585-2.711-4.585h-20.858
	c-2.349,0-3.844,2.524-2.711,4.585l6.243,11.354l-7.2,13.094c-0.997,1.813-1.321,3.92-0.916,5.949l4.441,22.544l10.574,27.758
	l10.585-27.763l4.466-22.537C380.21,140.621,379.886,138.513,378.888,136.699z"/>
<path style="fill:#B71A16;" d="M378.888,136.699l-7.22-13.131l6.222-11.316c1.131-2.058-0.359-4.585-2.711-4.585h-10.427v85.267
	v0.018l10.585-27.764l4.466-22.537C380.21,140.621,379.886,138.513,378.888,136.699z"/>
<g>
	<circle style="fill:#FFB69E;" cx="364.761" cy="49.302" r="42.853"/>
	<path style="fill:#FFB69E;" d="M322.753,37.834c7.632-6.934,8.197-18.742,1.263-26.374c-6.934-7.633-18.744-8.196-26.373-1.263
		L322.753,37.834z"/>
</g>
<polygon style="fill:#FFFFFF;" points="315.688,44.277 290.566,16.627 297.643,10.197 322.753,37.834 "/>
<path style="fill:#FFB69E;" d="M406.761,38.272c-7.632-6.934-8.197-18.742-1.263-26.374c6.934-7.633,18.744-8.196,26.373-1.263
	L406.761,38.272z"/>
<polygon style="fill:#FFFFFF;" points="413.826,44.715 438.948,17.066 431.872,10.636 406.761,38.272 "/>
<rect x="379.351" y="169.852" style="fill:#252D5C;" width="26.508" height="8.175"/>
<path style="fill:#52A1E8;" d="M229.154,147.199c-0.13-26.015-21.401-47.18-47.416-47.18h-31.357
	c0.001,0.02,0.003,0.039,0.004,0.059c0.554,12.374-10.91,22.914-22.894,22.945v169.018h53.949v-59.755l25.89,2.766
	c0.711,0.076,1.421,0.113,2.129,0.113c4.937,0,9.73-1.826,13.431-5.169c4.231-3.823,6.633-9.267,6.604-14.969L229.154,147.199z
	 M181.441,191.984v-51.891h0.297c4.029,0,7.322,3.278,7.343,7.307l0.228,45.424L181.441,191.984z"/>
<path style="fill:#FFFFFF;" d="M156.154,206.855l-41.753,11.333c-3.084,0.837-6.262-0.984-7.099-4.068l-19.159-70.586
	c-0.837-3.084,0.984-6.262,4.068-7.099l41.753-11.333c3.084-0.837,6.262,0.984,7.099,4.068l19.159,70.586
	C161.059,202.84,159.238,206.018,156.154,206.855z"/>
<path style="fill:#FFB69E;" d="M189.219,174.903l0.09,17.921l-50.924-5.439c-10.997-1.179-20.877,6.791-22.052,17.795
	s6.792,20.877,17.796,22.052l73.202,7.819c0.711,0.076,1.421,0.113,2.129,0.113c4.937,0,9.73-1.826,13.431-5.169
	c4.231-3.823,6.633-9.267,6.604-14.969l-0.202-40.123L189.219,174.903L189.219,174.903z"/>
<g>
</g>
<g>
</g>
<g>
</g>
<g>
</g>
<g>
</g>
<g>
</g>
<g>
</g>
<g>
</g>
<g>
</g>
<g>
</g>
<g>
</g>
<g>
</g>
<g>
</g>
<g>
</g>
<g>
</g>
</svg>
